<?xml version="1.0" encoding="UTF-8" standalone="no"?>
<svg
   viewBox="0 0 500 500"
   width="500"
   height="500"
   preserveAspectRatio="xMidYMid"
   version="1.1"
   id="svg37"
   xmlns="http://www.w3.org/2000/svg"
   xmlns:svg="http://www.w3.org/2000/svg">
  <defs
     id="defs1" />
  <path
     class="primary"
     fill="#121331"
     fill-opacity="1"
     d="m 440.25331,53.507703 c 0,0 -65.6046,0 -65.6046,0 0,0 0,-32.802293 0,-32.802293 0,-10.7591471 -8.92222,-19.6813761 -19.68137,-19.6813761 -10.75916,0 -19.68138,8.922229 -19.68138,19.6813761 0,0 0,32.802293 0,32.802293 0,0 -170.57192,0 -170.57192,0 0,0 0,-32.802293 0,-32.802293 0,-10.7591471 -8.92222,-19.6813761 -19.68137,-19.6813761 -10.75916,0 -19.68138,8.922229 -19.68138,19.6813761 0,0 0,32.802293 0,32.802293 0,0 -65.604589,0 -65.604589,0 -25.192162,0 -45.923211,20.73105 -45.923211,45.923211 0,0 0,354.264776 0,354.264776 0,25.19215 20.731048,45.9232 45.923211,45.9232 0,0 380.506609,0 380.506609,0 25.19215,0 45.9232,-20.73105 45.9232,-45.9232 0,0 0,-354.264776 0,-354.264776 0,-25.192161 -20.73105,-45.923211 -45.9232,-45.923211 z M 59.7467,92.870455 c 0,0 380.50661,0 380.50661,0 3.67385,0 6.56045,2.886605 6.56045,6.560459 0,0 0,59.044126 0,59.044126 0,0 -393.627518,0 -393.627518,0 0,0 0,-59.044126 0,-59.044126 0,-3.673854 2.886604,-6.560459 6.560458,-6.560459 z M 440.25331,460.25614 c 0,0 -380.50661,0 -380.50661,0 -3.673854,0 -6.560458,-2.8866 -6.560458,-6.56045 0,0 0,-255.85789 0,-255.85789 0,0 393.627518,0 393.627518,0 0,0 0,255.85789 0,255.85789 0,3.67385 -2.8866,6.56045 -6.56045,6.56045 z"
     id="path2"
     style="display:block;fill:#000000;fill-opacity:1;stroke-width:26.2418" />
  <g
     id="g37"
     transform="matrix(1.2598096,0,0,1.2598096,-64.955052,-51.512547)">
    <path
       class="primary"
       fill="#121331"
       fill-opacity="1"
       d="m -0.005,-1 c -0.55000001,0 -1,0.44999999 -1,1 0,0.55000001 0.44999999,1 1,1 0,0 0.01,0 0.01,0 0.55000001,0 1,-0.44999999 1,-1 -0.01,-0.55000001 -0.45999998,-1 -1.01,-1 z"
       id="path3"
       style="display:block;fill:#000000;fill-opacity:1"
       transform="matrix(20.83,0,0,20.83,166.78636,270.832)" />
    <path
       class="primary"
       fill="#121331"
       fill-opacity="1"
       d="m 0,-1 c 0,0 0,0 0,0 -0.56,0 -1,0.44999999 -1,1 0,0.55000001 0.44999999,1 1,1 C 0.55000001,1 1,0.55000001 1,0 1,-0.55000001 0.56,-1 0,-1 Z"
       id="path4"
       style="display:block;fill:#000000;fill-opacity:1"
       transform="matrix(20.83,0,0,20.83,250.002,270.832)" />
    <path
       class="primary"
       fill="#121331"
       fill-opacity="1"
       d="m 0,-1 c 0,0 0,0 0,0 -0.56,0 -1,0.44999999 -1,1 0,0.55000001 0.44999999,1 1,1 C 0.55000001,1 1,0.55000001 1,0 1,-0.55000001 0.55000001,-1 0,-1 Z"
       id="path5"
       style="display:block;fill:#000000;fill-opacity:1"
       transform="matrix(20.83,0,0,20.83,333.322,270.832)" />
    <path
       class="primary"
       fill="#121331"
       fill-opacity="1"
       d="m -0.005,-1 c -0.55000001,0 -1,0.44999999 -1,1 0,0.55000001 0.44999999,1 1,1 0,0 0.01,0 0.01,0 0.55000001,0 1,-0.44999999 1,-1 -0.01,-0.55000001 -0.45999998,-1 -1.01,-1 z"
       id="path6"
       style="display:block;fill:#000000;fill-opacity:1"
       transform="matrix(20.83,0,0,20.83,166.78636,343.737)" />
    <path
       class="primary"
       fill="#121331"
       fill-opacity="1"
       d="m 0,-1 c 0,0 0,0 0,0 -0.56,0 -1,0.44999999 -1,1 0,0.55000001 0.44999999,1 1,1 C 0.55000001,1 1,0.55000001 1,0 1,-0.55000001 0.56,-1 0,-1 Z"
       id="path7"
       style="display:block;fill:#000000;fill-opacity:1"
       transform="matrix(20.83,0,0,20.83,250.002,343.737)" />
  </g>
</svg>
