<?xml version="1.0" encoding="UTF-8" standalone="no"?>
<!-- Uploaded to: SVG Repo, www.svgrepo.com, Generator: SVG Repo Mixer Tools -->

<svg
   width="800px"
   height="800px"
   viewBox="0 0 24 24"
   fill="none"
   version="1.1"
   id="svg1"
   sodipodi:docname="cog.svg"
   inkscape:version="1.3.2 (091e20e, 2023-11-25, custom)"
   xmlns:inkscape="http://www.inkscape.org/namespaces/inkscape"
   xmlns:sodipodi="http://sodipodi.sourceforge.net/DTD/sodipodi-0.dtd"
   xmlns="http://www.w3.org/2000/svg"
   xmlns:svg="http://www.w3.org/2000/svg">
  <defs
     id="defs1" />
  <sodipodi:namedview
     id="namedview1"
     pagecolor="#ffffff"
     bordercolor="#000000"
     borderopacity="0.25"
     inkscape:showpageshadow="2"
     inkscape:pageopacity="0.0"
     inkscape:pagecheckerboard="0"
     inkscape:deskcolor="#d1d1d1"
     inkscape:zoom="0.79875"
     inkscape:cx="80.751174"
     inkscape:cy="294.2097"
     inkscape:window-width="2434"
     inkscape:window-height="1417"
     inkscape:window-x="2038"
     inkscape:window-y="87"
     inkscape:window-maximized="1"
     inkscape:current-layer="svg1" />
  <path
     id="path2"
     style="fill:#000000"
     d="M 10.5 1.5 C 10.2478 1.5 10.035087 1.6877789 10.003887 1.9379883 L 9.7716797 3.7954687 C 9.065118 3.9869338 8.3951209 4.2669912 7.7745703 4.6231641 L 6.296543 3.4736133 C 6.0975036 3.3188036 5.814315 3.3363881 5.6360156 3.5146875 L 3.5147461 5.6360156 C 3.3364367 5.814325 3.3188036 6.0974936 3.4736133 6.296543 L 4.6231641 7.7745703 C 4.2669912 8.3951226 3.9869338 9.0651164 3.7954687 9.7716797 L 1.9379883 10.003887 C 1.6877789 10.035087 1.5 10.2478 1.5 10.5 L 1.5 13.5 C 1.5 13.7522 1.6877789 13.964913 1.9379883 13.996113 L 3.7954687 14.22832 C 3.9869338 14.934902 4.2669912 15.604899 4.6231641 16.22543 L 3.4736133 17.703398 C 3.3187936 17.902498 3.3364363 18.185687 3.5147461 18.363984 L 3.8682422 18.010371 L 3.8683008 18.01043 L 3.5147461 18.363984 L 5.6360156 20.485312 C 5.814325 20.663612 6.0975036 20.681197 6.296543 20.526387 L 7.7745703 19.376836 C 8.3951225 19.73303 9.0651221 20.013091 9.7716797 20.204531 L 10.003887 22.062012 C 10.035086 22.312219 10.2478 22.5 10.5 22.5 L 13.5 22.5 C 13.7522 22.5 13.964913 22.312209 13.996113 22.062012 L 14.22832 20.204531 C 14.934902 20.013091 15.604899 19.73303 16.22543 19.376836 L 17.703398 20.526387 C 17.902498 20.681187 18.185687 20.663602 18.363984 20.485312 L 20.485312 18.363984 C 20.663612 18.185687 20.681197 17.902498 20.526387 17.703398 L 19.376836 16.22543 C 19.73303 15.604899 20.013091 14.934902 20.204531 14.22832 L 22.062012 13.996113 C 22.312209 13.964913 22.5 13.7522 22.5 13.5 L 22.5 10.5 C 22.5 10.2478 22.312209 10.035087 22.062012 10.003887 L 20.204531 9.7716797 C 20.013091 9.0651162 19.73303 8.3951284 19.376836 7.7745703 L 20.526387 6.296543 C 20.681187 6.0975036 20.663602 5.814325 20.485312 5.6360156 L 18.363984 3.5146875 C 18.185687 3.3363781 17.902498 3.3187936 17.703398 3.4736133 L 16.22543 4.6231641 C 15.604899 4.2669912 14.934902 3.9869338 14.22832 3.7954687 L 13.996113 1.9379883 C 13.964913 1.6877789 13.7522 1.5 13.5 1.5 L 10.5 1.5 z M 12 7.5 C 14.479353 7.5 16.5 9.5206484 16.5 12 C 16.5 14.479353 14.479353 16.5 12 16.5 C 9.5206484 16.5 7.5 14.479353 7.5 12 C 7.5 9.5206484 9.5206484 7.5 12 7.5 z M 12 8.5000195 C 10.061087 8.5000195 8.5000195 10.061087 8.5000195 12 C 8.5000195 13.938913 10.061087 15.49998 12 15.49998 C 13.938913 15.49998 15.49998 13.938913 15.49998 12 C 15.49998 10.061087 13.938913 8.5000195 12 8.5000195 z " />
</svg>
