<?xml version="1.0" encoding="UTF-8" standalone="no"?>
<!-- Created with Inkscape (http://www.inkscape.org/) -->

<svg
   width="21.226685mm"
   height="21.226685mm"
   viewBox="0 0 21.226685 21.226685"
   version="1.1"
   id="svg1"
   xml:space="preserve"
   xmlns="http://www.w3.org/2000/svg"
   xmlns:svg="http://www.w3.org/2000/svg"><defs
   id="defs1" />
    <circle
   style="fill:#000000;fill-opacity:1;stroke:#ffffff;stroke-width:0.264;stroke-linecap:round;stroke-linejoin:round;stroke-miterlimit:3.4;stroke-dasharray:none;stroke-opacity:1;paint-order:stroke fill markers"
   id="path1"
   cx="10.613342"
   cy="10.613342"
   r="10.481342" /><path
   id="circle1"
   style="fill:#fba119;fill-opacity:1;stroke:none;stroke-width:0.264;stroke-linecap:round;stroke-linejoin:round;stroke-miterlimit:3.4;stroke-dasharray:none;stroke-opacity:1;paint-order:stroke fill markers"
   d="M 10.502694,0.93252993 A 9.6809998,9.6809998 0 0 0 9.1565229,1.0420839 l 0.9301751,6.113322 a 3.5,3.5 0 0 1 0.526583,-0.04186 3.5,3.5 0 0 1 0.447001,0.02946 l 0.79065,-6.131409 a 9.6809998,9.6809998 0 0 0 -1.348238,-0.07906 z m 5.96191,1.96783897 -3.736723,4.924764 a 3.5,3.5 0 0 1 0.68678,0.690914 l 4.949052,-3.704167 A 9.6809998,9.6809998 0 0 0 16.464604,2.9003689 Z M 4.6198489,3.0104399 a 9.6809998,9.6809998 0 0 0 -1.863453,1.946651 l 5.02295,3.616316 a 3.5,3.5 0 0 1 0.671793,-0.702282 z m 15.5556391,6.087483 -6.106087,0.9673831 a 3.5,3.5 0 0 1 0.04393,0.548287 3.5,3.5 0 0 1 -0.03049,0.42478 l 6.139677,0.753959 a 9.6809998,9.6809998 0 0 0 -0.04703,-2.6944091 z m -19.1378501,0.09095 a 9.6809998,9.6809998 0 0 0 -0.02222,2.6944091 l 6.130892,-0.810803 a 3.5,3.5 0 0 1 -0.03307,-0.458887 3.5,3.5 0 0 1 0.03927,-0.514697 z m 6.700883,3.4101281 -5.091679,3.51503 a 9.6809998,9.6809998 0 0 0 1.824179,1.982825 l 3.925858,-4.782137 a 3.5,3.5 0 0 1 -0.658358,-0.715718 z m 5.7154141,0.04547 a 3.5,3.5 0 0 1 -0.669727,0.70435 l 3.846277,4.848799 a 9.6809998,9.6809998 0 0 0 1.857768,-1.952335 z m -3.34915,1.43092 -0.9007201,6.115906 a 9.6809998,9.6809998 0 0 0 2.6944091,0.01809 l -0.820105,-6.129342 a 3.5,3.5 0 0 1 -0.465088,0.03307 3.5,3.5 0 0 1 -0.508496,-0.03772 z" /></svg>
