<?xml version="1.0" encoding="UTF-8" standalone="no"?>
<!-- Created with Inkscape (http://www.inkscape.org/) -->

<svg
        width="75.237679mm"
        height="42.063385mm"
        viewBox="0 0 75.237679 42.063385"
        version="1.1"
        id="svg1"
        xml:space="preserve"
        xmlns="http://www.w3.org/2000/svg"
        xmlns:svg="http://www.w3.org/2000/svg">
    <g
            id="layer1"
            transform="translate(-5.1126753,-17.778169)"><g
       id="g12"
       transform="translate(0,-0.15664534)"><circle
         style="fill:#000000;fill-opacity:1;stroke:#ffffff;stroke-width:0.264;stroke-linecap:round;stroke-linejoin:round;stroke-miterlimit:3.4;stroke-dasharray:none;stroke-opacity:1;paint-order:stroke fill markers"
         id="path1"
         cx="21.874119"
         cy="38.316021"
         r="10.481342" /><path
            id="circle1"
            style="fill:#fba119;fill-opacity:1;stroke:none;stroke-width:0.264;stroke-linecap:round;stroke-linejoin:round;stroke-miterlimit:3.4;stroke-dasharray:none;stroke-opacity:1;paint-order:stroke fill markers"
            d="m 21.76347,28.635209 a 9.6809998,9.6809998 0 0 0 -1.346171,0.109554 l 0.930175,6.113322 a 3.5,3.5 0 0 1 0.526583,-0.04186 3.5,3.5 0 0 1 0.447001,0.02946 l 0.79065,-6.131409 a 9.6809998,9.6809998 0 0 0 -1.348238,-0.07906 z m 5.96191,1.967839 -3.736723,4.924764 a 3.5,3.5 0 0 1 0.68678,0.690914 l 4.949052,-3.704167 A 9.6809998,9.6809998 0 0 0 27.72538,30.603048 Z m -11.844755,0.110071 a 9.6809998,9.6809998 0 0 0 -1.863453,1.946651 l 5.02295,3.616316 a 3.5,3.5 0 0 1 0.671793,-0.702282 z m 15.555639,6.087483 -6.106087,0.967383 a 3.5,3.5 0 0 1 0.04393,0.548287 3.5,3.5 0 0 1 -0.03049,0.42478 l 6.139677,0.753959 a 9.6809998,9.6809998 0 0 0 -0.04703,-2.694409 z m -19.13785,0.09095 a 9.6809998,9.6809998 0 0 0 -0.02222,2.694409 l 6.130892,-0.810803 a 3.5,3.5 0 0 1 -0.03307,-0.458887 3.5,3.5 0 0 1 0.03927,-0.514697 z m 6.700883,3.410128 -5.091679,3.51503 a 9.6809998,9.6809998 0 0 0 1.824179,1.982825 l 3.925858,-4.782137 A 3.5,3.5 0 0 1 18.999297,40.30168 Z m 5.715414,0.04547 a 3.5,3.5 0 0 1 -0.669727,0.70435 l 3.846277,4.848799 a 9.6809998,9.6809998 0 0 0 1.857768,-1.952335 z m -3.34915,1.43092 -0.90072,6.115906 a 9.6809998,9.6809998 0 0 0 2.694409,0.01809 l -0.820105,-6.129342 a 3.5,3.5 0 0 1 -0.465088,0.03307 3.5,3.5 0 0 1 -0.508496,-0.03772 z"/></g>
        <g
                id="g11"><text
         xml:space="preserve"
         style="font-style:normal;font-variant:normal;font-weight:normal;font-stretch:normal;font-size:9.50497px;line-height:0.9;font-family:'Segoe UI';-inkscape-font-specification:'Segoe UI';letter-spacing:0.370417px;word-spacing:0.445545px;fill:#ffffff;fill-opacity:1;stroke:none;stroke-width:0.444563;stroke-linecap:round;stroke-linejoin:round;stroke-miterlimit:3.4;stroke-dasharray:none;stroke-opacity:1;paint-order:stroke fill markers"
         x="35.219391"
         y="35.859882"
         id="text8"><tspan
           id="tspan8"
           style="font-style:normal;font-variant:normal;font-weight:normal;font-stretch:normal;font-family:'Segoe UI';-inkscape-font-specification:'Segoe UI';letter-spacing:0.370417px;stroke-width:0.444563"
           x="35.219391"
           y="35.859882">ProCab</tspan><tspan
                style="font-style:normal;font-variant:normal;font-weight:normal;font-stretch:normal;font-family:'Segoe UI';-inkscape-font-specification:'Segoe UI';letter-spacing:0.370417px;stroke-width:0.444563"
                x="35.219391"
                y="44.414356"
                id="tspan9"/></text>
            <text
                    xml:space="preserve"
                    style="font-style:normal;font-variant:normal;font-weight:normal;font-stretch:normal;font-size:7.4854px;line-height:0.9;font-family:'Segoe UI';-inkscape-font-specification:'Segoe UI';letter-spacing:0.49123px;word-spacing:0.350878px;fill:#ffffff;fill-opacity:1;stroke:none;stroke-width:0.350105;stroke-linecap:round;stroke-linejoin:round;stroke-miterlimit:3.4;stroke-dasharray:none;stroke-opacity:1;paint-order:stroke fill markers"
                    x="35.821918"
                    y="43.100765"
                    id="text10"><tspan
           id="tspan10"
           style="stroke-width:0.350105"
           x="35.821918"
           y="43.100765">Simulators</tspan></text>
            <text
                    xml:space="preserve"
                    style="font-style:normal;font-variant:normal;font-weight:normal;font-stretch:normal;font-size:2.11667px;line-height:0.9;font-family:'Segoe UI';-inkscape-font-specification:'Segoe UI';letter-spacing:0.116417px;word-spacing:0.264583px;fill:#ffffff;fill-opacity:1;stroke:none;stroke-width:0.264;stroke-linecap:round;stroke-linejoin:round;stroke-miterlimit:3.4;stroke-dasharray:none;stroke-opacity:1;paint-order:stroke fill markers"
                    x="35.897614"
                    y="46.996613"
                    id="text11"><tspan
           id="tspan11"
           style="font-size:2.11667px;letter-spacing:0.116417px;stroke-width:0.264"
           x="35.897614"
           y="46.996613">Real Components - Simulated Reality</tspan></text></g></g></svg>
