<?xml version="1.0" encoding="UTF-8" standalone="no"?>
<!-- Created with Inkscape (http://www.inkscape.org/) -->

<svg
   version="1.1"
   id="svg1"
   width="301.67545"
   height="89.332001"
   viewBox="0 0 301.67545 89.332003"
   sodipodi:docname="spii.svg"
   inkscape:export-filename="Helping company logos\spii.svg"
   inkscape:export-xdpi="96"
   inkscape:export-ydpi="96"
   inkscape:version="1.3.2 (091e20e, 2023-11-25, custom)"
   xmlns:inkscape="http://www.inkscape.org/namespaces/inkscape"
   xmlns:sodipodi="http://sodipodi.sourceforge.net/DTD/sodipodi-0.dtd"
   xmlns="http://www.w3.org/2000/svg"
   xmlns:svg="http://www.w3.org/2000/svg">
  <defs
     id="defs1">
    <clipPath
       clipPathUnits="userSpaceOnUse"
       id="clipPath2">
      <path
         d="M 0,113.386 H 361.417 V 0 H 0 Z"
         transform="translate(-91.303202,-58.937001)"
         id="path2" />
    </clipPath>
    <linearGradient
       x1="0"
       y1="0"
       x2="1"
       y2="0"
       gradientUnits="userSpaceOnUse"
       gradientTransform="matrix(44.163288,-33.887684,-33.887684,-44.163288,27.323536,62.18346)"
       spreadMethod="pad"
       id="linearGradient4">
      <stop
         style="stop-color:#000000;stop-opacity:1;"
         offset="0"
         id="stop2" />
      <stop
         style="stop-color:#e9e9e9;stop-opacity:1;"
         offset="0.36829022"
         id="stop3" />
      <stop
         style="stop-color:#e9e9e9;stop-opacity:1;"
         offset="1"
         id="stop4" />
    </linearGradient>
    <radialGradient
       fx="0"
       fy="0"
       cx="0"
       cy="0"
       r="1"
       gradientUnits="userSpaceOnUse"
       gradientTransform="matrix(12.818183,0,0,-12.777164,211.43713,92.533562)"
       spreadMethod="pad"
       id="radialGradient7">
      <stop
         style="stop-opacity:1;stop-color:#ffffff"
         offset="0"
         id="stop5" />
      <stop
         style="stop-opacity:1;stop-color:#ed1b29"
         offset="0.7993669"
         id="stop6" />
      <stop
         style="stop-opacity:1;stop-color:#ed1b29"
         offset="1"
         id="stop7" />
    </radialGradient>
    <clipPath
       clipPathUnits="userSpaceOnUse"
       id="clipPath12">
      <path
         d="M 0,113.386 H 361.417 V 0 H 0 Z"
         transform="translate(-127.4697,-48.822201)"
         id="path12" />
    </clipPath>
    <clipPath
       clipPathUnits="userSpaceOnUse"
       id="clipPath14">
      <path
         d="M 0,113.386 H 361.417 V 0 H 0 Z"
         transform="translate(-150.45561,-42.388601)"
         id="path14" />
    </clipPath>
    <clipPath
       clipPathUnits="userSpaceOnUse"
       id="clipPath16">
      <path
         d="M 0,113.386 H 361.417 V 0 H 0 Z"
         id="path16" />
    </clipPath>
  </defs>
  <sodipodi:namedview
     id="namedview1"
     pagecolor="#ffffff"
     bordercolor="#000000"
     borderopacity="0.25"
     inkscape:showpageshadow="2"
     inkscape:pageopacity="0.0"
     inkscape:pagecheckerboard="0"
     inkscape:deskcolor="#d1d1d1"
     inkscape:zoom="5.4827134"
     inkscape:cx="119.64879"
     inkscape:cy="37.390246"
     inkscape:window-width="2434"
     inkscape:window-height="1417"
     inkscape:window-x="2038"
     inkscape:window-y="87"
     inkscape:window-maximized="1"
     inkscape:current-layer="layer-MC1" />
  <g
     id="layer-MC0"
     inkscape:groupmode="layer"
     inkscape:label="Schweif+Punkt"
     transform="translate(-6.6013331,-18.134666)"
     style="display:inline">
    <path
       id="path1"
       d="m 0,0 c 0.144,0.288 0.216,0.576 0.36,0.864 5.472,15.12 14.76,31.608 36.936,31.608 h 70.699 V 27.576 L 33.623,27.648 C 13.895,27.648 3.096,6.552 0.504,-0.576 0.432,-0.648 0.432,-0.72 0.432,-0.792 Z"
       style="fill:#e9e9e9;fill-opacity:1;fill-rule:evenodd;stroke:none"
       transform="matrix(1.3333333,0,0,-1.3333333,121.7376,72.598667)"
       clip-path="url(#clipPath2)" />
    <path
       id="path4"
       d="M 91.352,59.065 C 86.599,49.057 71.624,37.321 59.599,37.25 v 0 H 8.192 L 4.951,32.786 h 53.856 c 18.073,1.008 28.512,12.527 33.264,26.279 v 0 z"
       transform="matrix(1.3333333,0,0,-1.3333333,0,151.18133)"
       style="fill:url(#linearGradient4);stroke:none" />
    <path
       id="path7"
       d="m 202.378,88.907 c 0,-6.008 4.887,-10.878 10.912,-10.878 v 0 c 6.026,0 10.913,4.87 10.913,10.878 v 0 c 0,6.008 -4.887,10.878 -10.913,10.878 v 0 c -6.025,0 -10.912,-4.87 -10.912,-10.878"
       transform="matrix(1.3333333,0,0,-1.3333333,0,151.18133)"
       style="fill:url(#radialGradient7);stroke:none" />
  </g>
  <g
     id="layer-MC1"
     inkscape:groupmode="layer"
     inkscape:label="SPII"
     transform="translate(-6.6013331,-18.134666)">
    <path
       id="path8"
       d="m 0,0 -2.124,-2.191 0.573,-0.589 1.554,1.605 z"
       style="fill:#e9e9e9;fill-opacity:1;fill-rule:nonzero;stroke:none"
       transform="matrix(1.3333333,0,0,-1.3333333,180.61987,73.552533)" />
    <path
       id="path9"
       d="M 0,0 H 1.145 L 3.95,2.882 3.375,3.468 Z"
       style="fill:#e9e9e9;fill-opacity:1;fill-rule:nonzero;stroke:none"
       transform="matrix(1.3333333,0,0,-1.3333333,153.194,101.7452)" />
    <path
       id="path10"
       d="M 0,0 0.573,-0.59 1.387,0.263 0.812,0.85 Z"
       style="fill:#e9e9e9;fill-opacity:1;fill-rule:nonzero;stroke:none"
       transform="matrix(1.3333333,0,0,-1.3333333,175.7988,78.529067)" />
    <path
       id="path11"
       d="M 0,0 4.288,4.4 3.714,4.987 3.318,4.578 C 0.711,5.742 -2.252,6.979 -4.949,7.636 -9.015,8.628 -7.388,6.096 -5.963,4.15 -4.932,2.744 -3.5,0.956 -2.119,-1.005 l -6.414,-6.602 0.573,-0.591 0.565,0.594 c 2.81,-1.706 8.374,-4.772 9.847,-3.256 1.016,1.047 -1.328,6.332 -3.574,9.699 l 0.383,0.396 -0.582,0.58 -0.276,-0.289 c -1.363,1.932 -2.769,3.69 -3.784,5.078 -0.233,0.314 -1.462,1.949 -1.416,2.478 0.454,0.715 6.901,-1.95 9.55,-3.083 l -3.326,-3.41 z"
       style="fill:#e9e9e9;fill-opacity:1;fill-rule:nonzero;stroke:none"
       transform="matrix(1.3333333,0,0,-1.3333333,169.9596,86.085067)"
       clip-path="url(#clipPath12)" />
    <path
       id="path13"
       d="m 0,0 v -5.708 c 0,0 6.681,-0.996 13.518,-0.835 6.836,0.161 11.935,3.291 11.935,7.549 0,4.259 -4.629,5.524 -6.836,5.612 -2.515,0.097 -7.33,-0.747 -7.33,1.906 0,1.437 2.035,1.417 3.455,1.417 6.485,0 9.681,-1.385 9.681,-1.385 v 6.09 c 0,0 -10.362,2.619 -17.456,1.167 C -0.129,14.36 -0.129,8.651 0,7.169 0.129,5.684 2.225,2.108 6.713,1.937 c 4.257,-0.159 4.231,-0.062 7.16,-0.062 2.158,0 2.191,-2.482 0.196,-2.482 -2.393,0 -5.814,-0.228 -8.587,-0.065 C 2.708,-0.511 0,0 0,0 m 36.873,3.782 h 4.577 c 2.05,0 4.091,0.992 4.091,3.001 0,2.007 -3.064,2.572 -4.025,2.572 h -4.643 z m -9.751,-9.916 v 21.421 h 17.702 c 2.864,0 9.655,-1.154 9.655,-8.049 0,-6.895 -7.314,-8.38 -8.799,-8.38 H 36.881 V -6.134 Z M 57.76,14.974 h 9.639 V -6.447 H 57.76 Z m 13.357,0 h 9.635 V -6.447 h -9.635 z"
       style="fill:#e9e9e9;fill-opacity:1;fill-rule:nonzero;stroke:none"
       transform="matrix(1.3333333,0,0,-1.3333333,200.60747,94.6632)"
       clip-path="url(#clipPath14)" />
    <path
       id="path15"
       d="M 136.774,58.901 H 112.888 V 35.512 h 23.886 z m -1.75,-21.639 h -20.386 v 19.889 h 20.386 z"
       style="fill:#e9e9e9;fill-opacity:1;fill-rule:nonzero;stroke:none"
       transform="matrix(1.3333333,0,0,-1.3333333,0,151.18133)"
       clip-path="url(#clipPath16)" />
  </g>
</svg>
